<svg xmlns="http://www.w3.org/2000/svg" viewBox="141 128 590 590">
  <g fill="#000000">
    <path d="M305.48 546.22 c-1.35 -1.72 -29.91 -47.88 -56.86 -92.06 -9.23 -15.26 -23.63 -38.77 -32 -52.31 -24.49 -39.88 -49.35 -80.86 -52.55 -86.40 l-3.08 -5.29 56 0 56.12 0 4.55 7.63 c4.80 8 87.02 137.11 124.55 195.82 11.69 18.09 21.17 33.23 21.17 33.48 0 0.37 -26.22 0.62 -58.34 0.62 -45.17 0 -58.58 -0.37 -59.57 -1.48z"/>
  </g>
  <g fill="#ec0e20">
    <path d="M444.06 545.60 c-6.03 -6.89 -149.42 -233.97 -148.31 -234.95 0.25 -0.25 30.03 -0.49 66.22 -0.49 l65.72 -0.25 5.42 9.11 c3.08 4.92 13.78 22.52 24 39.14 16.86 27.57 27.94 45.66 86.52 140.92 10.83 17.60 21.66 35.20 24.12 39.02 2.58 3.82 4.55 7.63 4.55 8.37 0 0.86 -19.94 1.23 -63.14 1.23 -58.71 0 -63.38 -0.12 -65.11 -2.09z"/>
  </g>
  <g fill="#fec71e">
    <path d="M593.48 546.22 c-0.62 -0.86 -4.18 -6.52 -8 -12.68 -3.69 -6.03 -11.82 -19.32 -18.09 -29.54 -13.54 -21.91 -25.11 -40.74 -60.31 -98.46 -14.40 -23.63 -33.35 -54.65 -41.97 -68.80 -8.74 -14.15 -15.63 -25.97 -15.38 -26.22 0.62 -0.62 139.94 -0.62 140.43 -0.12 0.12 0.25 6.77 11.45 14.77 24.98 8 13.54 30.89 51.82 50.83 84.92 19.94 33.23 45.17 74.95 56 92.92 10.71 17.97 19.82 32.98 20.18 33.60 0.25 0.49 -30.52 0.86 -68.31 0.86 -53.66 0 -69.17 -0.37 -70.15 -1.48z"/>
  </g>
</svg>
