<svg xmlns="http://www.w3.org/2000/svg" viewBox="130 290 1000 270">
  <rect x="130" y="290" width="1000" height="270" rx="60" fill="#1c1d22"/>
  <g fill="#111111">
    <path d="M305.48 546.22 c-1.35 -1.72 -29.91 -47.88 -56.86 -92.06 -9.23 -15.26 -23.63 -38.77 -32 -52.31 -24.49 -39.88 -49.35 -80.86 -52.55 -86.40 l-3.08 -5.29 56 0 56.12 0 4.55 7.63 c4.80 8 87.02 137.11 124.55 195.82 11.69 18.09 21.17 33.23 21.17 33.48 0 0.37 -26.22 0.62 -58.34 0.62 -45.17 0 -58.58 -0.37 -59.57 -1.48z"/>
    <path d="M726.77 505.60 c-29.17 -48 -70.77 -116.92 -96.49 -160.12 -9.60 -16.25 -18.34 -30.77 -19.45 -32.37 l-1.85 -2.95 50.46 0 50.46 0 9.72 16.98 c13.29 22.77 35.82 61.17 61.29 104.25 11.69 19.69 23.51 39.75 26.46 44.68 l5.17 8.86 50.71 0 50.58 0 3.82 6.52 c2.09 3.45 10.58 17.35 18.71 30.77 8.25 13.42 15.02 24.62 15.02 24.98 0 0.25 -44.80 0.49 -99.45 0.49 l-99.45 0 -25.72 -42.09z"/>
    <path d="M965.42 536.86 c-3.45 -5.91 -15.88 -26.22 -27.57 -45.17 -23.75 -38.40 -56.98 -92.43 -67.57 -109.78 l-6.89 -11.32 -48.25 -0.12 -48.12 0 -8.37 -14.40 c-4.55 -8 -12.31 -21.42 -17.23 -29.91 l-8.98 -15.38 162.71 -0.62 c89.48 -0.37 162.95 -0.49 163.20 -0.25 0.37 0.12 -0.74 1.23 -2.46 2.34 -6.40 4.31 -17.97 17.35 -21.17 23.75 -3.82 7.88 -5.78 17.11 -5.78 27.20 l0 7.26 -30.77 0 c-17.23 0 -30.77 0.49 -30.77 1.11 0 1.11 24.74 41.23 48.49 78.89 6.65 10.46 20.18 32.12 29.91 48 9.85 15.88 20.55 33.23 23.88 38.40 3.32 5.17 6.03 9.72 6.03 10.09 0 0.49 -23.38 0.74 -51.94 0.74 l-52.06 0 -6.28 -10.83z"/>
  </g>
  <g fill="#fec71e">
    <path d="M593.48 546.22 c-0.62 -0.86 -4.18 -6.52 -8 -12.68 -3.69 -6.03 -11.82 -19.32 -18.09 -29.54 -13.54 -21.91 -25.11 -40.74 -60.31 -98.46 -14.40 -23.63 -33.35 -54.65 -41.97 -68.80 -8.74 -14.15 -15.63 -25.97 -15.38 -26.22 0.62 -0.62 139.94 -0.62 140.43 -0.12 0.12 0.25 6.77 11.45 14.77 24.98 8 13.54 30.89 51.82 50.83 84.92 19.94 33.23 45.17 74.95 56 92.92 10.71 17.97 19.82 32.98 20.18 33.60 0.25 0.49 -30.52 0.86 -68.31 0.86 -53.66 0 -69.17 -0.37 -70.15 -1.48z"/>
  </g>
  <g fill="#ec0e20">
    <path d="M444.06 545.60 c-6.03 -6.89 -149.42 -233.97 -148.31 -234.95 0.25 -0.25 30.03 -0.49 66.22 -0.49 l65.72 -0.25 5.42 9.11 c3.08 4.92 13.78 22.52 24 39.14 16.86 27.57 27.94 45.66 86.52 140.92 10.83 17.60 21.66 35.20 24.12 39.02 2.58 3.82 4.55 7.63 4.55 8.37 0 0.86 -19.94 1.23 -63.14 1.23 -58.71 0 -63.38 -0.12 -65.11 -2.09z"/>
  </g>
</svg>
