<svg xmlns="http://www.w3.org/2000/svg" viewBox="141 285 1255 376">
  <rect x="141" y="285" width="1255" height="376" rx="40" fill="#ffffff"/>
  <g fill="#000000">
    <path d="M475.69 638.89 c-19.57 -5.54 -28.06 -16.98 -25.23 -33.97 3.69 -22.65 24.86 -34.83 57.85 -33.48 16.37 0.62 24.74 2.95 32.25 8.62 8.25 6.28 10.22 10.83 10.09 22.40 -0.12 11.08 -1.97 16.49 -8.12 23.51 -4.55 5.17 -17.72 11.82 -27.82 13.91 -9.72 2.09 -30.28 1.60 -39.02 -0.98z m30.15 -16.25 c18.95 -4.06 23.51 -26.34 6.52 -32 -7.14 -2.34 -20.31 -0.86 -26.09 2.95 -6.52 4.31 -9.48 11.94 -7.51 19.20 1.48 5.66 5.17 8.74 12.06 10.09 6.77 1.23 8.12 1.23 15.02 -0.25z"/>
    <path d="M644.18 640 c-12.18 -2.58 -22.03 -8.62 -26.46 -16.37 -4.43 -7.88 -4.18 -20.06 0.74 -29.05 9.23 -16.74 27.82 -24.62 55.14 -23.14 19.69 0.98 29.42 4.92 37.29 15.38 10.34 13.42 4.55 35.69 -11.82 45.54 -3.69 2.22 -9.48 4.92 -12.92 6.03 -7.14 2.22 -34.09 3.32 -41.97 1.60z m32.74 -19.57 c8.86 -4.55 12.92 -17.35 7.88 -24.62 -4.80 -6.65 -21.29 -8.62 -31.26 -3.45 -12.55 6.28 -15.14 22.40 -4.55 28.18 7.38 3.94 20.18 3.94 27.94 -0.12z"/>
    <path d="M968 639.38 c-9.23 -2.46 -13.17 -4.18 -17.60 -7.51 -13.17 -10.09 -12.68 -33.60 1.23 -46.89 5.42 -5.17 18.34 -10.95 28.80 -12.80 11.57 -1.97 30.89 -0.74 40.98 2.71 20.06 6.89 27.32 24.62 17.97 43.69 -4.92 10.09 -14.52 16.74 -29.78 20.68 -9.23 2.46 -32.86 2.46 -41.60 0.12z m35.45 -18.46 c6.03 -2.83 9.72 -8.25 10.46 -15.26 0.37 -4.92 0 -6.40 -2.83 -9.72 -7.51 -8.98 -26.95 -8.62 -36.68 0.74 -6.40 6.03 -6.89 17.48 -1.11 22.77 5.29 4.80 21.54 5.54 30.15 1.48z"/>
    <path d="M1235.08 639.51 c-14.40 -2.95 -21.54 -8.74 -21.54 -17.60 l0 -4.06 14.65 0 c13.91 0 14.77 0.12 15.51 2.58 1.23 3.69 7.88 6.03 16.98 6.03 9.60 0 15.63 -1.85 15.63 -4.92 0 -3.94 -3.45 -5.17 -21.17 -7.51 -21.17 -2.95 -27.69 -4.92 -32.49 -9.85 -3.08 -3.20 -3.57 -4.68 -3.57 -10.58 0 -6.52 0.25 -7.02 5.42 -11.57 7.51 -6.77 17.97 -9.85 35.82 -10.58 28.43 -1.23 45.54 6.03 47.02 19.94 l0.37 3.69 -12.55 0.37 c-12.92 0.37 -13.05 0.25 -16.98 -5.29 -1.35 -2.09 -3.32 -2.46 -13.29 -2.83 -12.68 -0.49 -16.86 0.74 -16.86 4.80 0 3.57 5.78 5.54 22.15 7.14 27.82 2.83 36.92 7.75 36.92 19.69 0 10.09 -8.37 17.11 -24.12 20.43 -10.22 2.22 -37.42 2.22 -47.88 0.12z"/>
    <path d="M304.86 639.14 c-0.49 -0.86 6.89 -56.37 8.37 -62.77 0.62 -2.71 1.23 -2.83 14.03 -2.83 l13.29 0 -0.86 4.92 -0.86 4.80 4.55 -3.57 c13.05 -10.34 34.34 -11.08 43.69 -1.72 l4.06 4.06 3.32 -2.58 c5.17 -4.06 15.26 -7.26 24.62 -8 15.63 -1.11 26.46 5.66 26.46 16.74 0 2.46 -1.48 15.14 -3.32 28.18 l-3.32 23.63 -13.91 0 -13.91 0 0 -3.32 c0 -1.97 1.11 -10.09 2.46 -18.22 3.20 -19.57 3.20 -23.38 -0.25 -25.72 -5.91 -4.18 -16.98 -0.98 -20.06 5.66 -1.11 2.22 -3.20 12.43 -4.68 22.52 l-2.71 18.46 -13.78 0.37 c-12.68 0.25 -13.91 0.12 -13.91 -1.85 0 -1.23 1.23 -10.58 2.71 -20.92 3.20 -21.66 2.71 -24.37 -4.55 -25.72 -5.91 -1.11 -12.80 1.72 -16 6.40 -1.85 2.83 -3.20 8.37 -4.80 20.92 -1.23 9.35 -2.46 18.09 -2.83 19.32 -0.49 1.85 -2.22 2.09 -13.91 2.09 -7.38 0 -13.66 -0.37 -13.91 -0.86z"/>
    <path d="M572.92 638.28 c-2.71 -1.11 -6.40 -3.57 -8.25 -5.66 -2.95 -3.20 -3.45 -4.80 -3.45 -10.83 0 -3.82 0.86 -11.69 1.85 -17.48 2.71 -15.38 2.95 -14.77 -4.43 -14.77 l-6.40 0 0.86 -4.55 c0.37 -2.58 0.74 -6.15 0.74 -8 0 -3.32 0.12 -3.45 7.26 -3.45 l7.26 0 0.86 -6.40 c0.37 -3.57 0.98 -8 1.35 -9.85 l0.74 -3.45 13.78 0 13.91 0 -0.98 5.91 c-0.49 3.20 -0.98 7.63 -0.98 9.85 l-0.12 3.94 9.97 0 c9.72 0 9.97 0.12 9.23 2.83 -0.37 1.48 -0.74 5.05 -0.74 8 l0 5.17 -10.95 0 -10.95 0 -2.22 14.15 c-2.09 13.78 -2.09 14.15 0.25 16.74 1.97 2.22 3.32 2.46 10.22 2.09 l7.88 -0.49 -0.74 7.88 c-0.49 4.43 -1.11 8.25 -1.48 8.62 -0.37 0.37 -7.14 0.86 -15.14 1.11 -10.46 0.25 -15.75 -0.12 -19.32 -1.35z"/>
    <path d="M720 637.29 c0 -2.46 6.15 -47.63 8.12 -59.69 l0.62 -4.06 13.42 0 c7.51 0 13.54 0.37 13.54 0.98 -0.12 0.49 -0.62 3.20 -1.11 6.15 -0.62 2.83 -0.62 5.17 -0.25 5.17 0.49 0 2.46 -1.72 4.55 -3.82 6.15 -6.52 12.18 -8.86 24.37 -9.48 10.34 -0.49 10.95 -0.37 10.09 1.72 -0.49 1.23 -1.48 6.52 -2.22 11.69 l-1.35 9.23 -6.40 -0.49 c-8.12 -0.62 -18.22 1.48 -23.02 4.92 -5.05 3.57 -7.88 10.58 -9.60 23.14 -0.74 5.78 -1.60 11.94 -1.97 13.91 l-0.74 3.32 -14.03 0 c-13.78 0 -14.03 0 -14.03 -2.71z"/>
    <path d="M816.86 637.91 c-2.46 -8.74 -11.45 -40.98 -13.78 -49.60 -1.60 -5.78 -3.32 -11.45 -3.69 -12.55 -0.86 -2.09 0.37 -2.22 13.91 -2.22 l14.77 0 3.94 16.98 c5.91 25.35 5.29 24 8.49 17.48 1.60 -3.08 6.40 -12.06 10.83 -19.94 l8 -14.52 14.03 0 c13.54 0 14.03 0.12 14.65 2.83 5.05 21.78 8.25 34.71 8.62 35.08 0.37 0.37 17.48 -31.38 19.32 -35.69 0.74 -1.97 2.71 -2.22 15.75 -2.22 8.12 0 14.77 0.25 14.77 0.62 0 0.25 -2.09 4.06 -4.68 8.25 -2.58 4.31 -11.20 18.95 -19.20 32.74 l-14.40 24.86 -14.65 0 -14.65 0 -1.35 -4.80 c-1.23 -4.92 -7.38 -32 -7.38 -32.98 0 -2.71 -4.06 3.08 -13.29 18.71 l-10.83 18.46 -14.28 0.37 c-12.80 0.25 -14.28 0.12 -14.89 -1.85z"/>
    <path d="M1046.52 637.29 c0.37 -1.60 2.46 -15.88 4.55 -31.75 2.22 -15.88 4.18 -29.66 4.43 -30.40 0.25 -1.11 4.06 -1.60 13.54 -1.60 l13.05 0 -0.86 6.40 -0.98 6.52 5.66 -5.17 c3.57 -3.32 7.88 -5.78 12.06 -7.02 6.65 -1.97 22.03 -2.71 22.03 -0.98 0 0.62 -3.57 21.78 -3.69 21.78 -21.05 0 -21.54 0 -26.95 3.08 -7.26 4.06 -9.48 8.25 -11.82 22.15 -0.98 6.40 -2.22 13.54 -2.58 15.75 l-0.62 3.94 -14.28 0 c-14.03 0 -14.15 0 -13.54 -2.71z"/>
    <path d="M1118.77 639.38 c0 -0.37 2.83 -19.20 6.15 -41.85 3.45 -22.65 6.15 -41.72 6.15 -42.46 0 -0.74 5.29 -1.23 14.89 -1.23 13.54 0 14.77 0.25 14.15 2.22 -0.25 1.11 -1.48 8.25 -2.58 15.63 -1.11 7.51 -2.46 15.88 -3.08 18.83 -0.49 2.83 -0.62 5.17 -0.12 5.17 0.37 0 7.38 -4.92 15.51 -11.08 l14.77 -10.95 18.95 -0.12 18.95 0 -18.34 12.43 c-10.09 6.89 -18.83 12.92 -19.45 13.42 -0.62 0.62 1.11 3.69 3.82 7.02 3.94 4.80 20.31 25.60 25.35 32.12 0.86 1.11 -2.58 1.48 -16.62 1.48 l-17.72 0 -9.60 -13.54 c-5.54 -7.63 -10.34 -13.17 -11.08 -12.68 -8 4.43 -8.98 6.15 -9.85 16.25 l-0.86 9.97 -14.77 0 c-8 0 -14.65 -0.25 -14.65 -0.62z"/>
    <path d="M1217.23 551.88 c-2.34 -0.37 -12.06 -1.35 -21.54 -2.46 -61.17 -6.65 -103.63 -28.43 -121.11 -61.91 -4.18 -8 -8.74 -21.17 -8.74 -24.98 0 -0.62 23.14 -0.86 51.32 -0.74 l51.45 0.37 0.74 4.55 c2.83 17.72 27.69 26.83 73.72 26.95 14.15 0 19.32 -0.49 24.62 -2.22 15.02 -5.05 15.38 -18.46 0.62 -25.11 -6.77 -3.08 -24.86 -6.52 -56.62 -10.95 -100.92 -14.03 -123.57 -20.80 -147.08 -44.31 -14.77 -14.65 -20.68 -29.42 -19.32 -48.25 1.72 -26.34 21.91 -44.80 56.74 -51.94 21.91 -4.55 42.95 -5.91 78.89 -5.29 37.05 0.74 52.06 1.97 71.26 5.91 43.20 8.74 70.40 30.65 82.71 66.58 1.60 4.80 2.95 8.98 2.95 9.23 0 0.25 -21.17 0.25 -47.02 0.12 l-47.02 -0.37 -1.11 -5.42 c-1.60 -8.25 -9.35 -15.26 -20.80 -18.83 -8.25 -2.58 -11.20 -2.83 -36.68 -2.83 -23.88 0 -28.55 0.37 -33.48 2.22 -10.95 4.18 -14.03 12.80 -7.14 19.32 7.14 6.65 15.63 8.49 83.20 17.85 26.46 3.69 53.54 7.88 60.06 9.23 57.97 11.94 88.12 40.98 88.12 84.80 0 11.82 -1.35 16.37 -7.38 25.72 -10.22 15.88 -29.05 24.98 -63.75 30.52 -11.45 1.97 -76.55 3.45 -87.63 2.22z"/>
    <path d="M305.48 546.22 c-1.35 -1.72 -29.91 -47.88 -56.86 -92.06 -9.23 -15.26 -23.63 -38.77 -32 -52.31 -24.49 -39.88 -49.35 -80.86 -52.55 -86.40 l-3.08 -5.29 56 0 56.12 0 4.55 7.63 c4.80 8 87.02 137.11 124.55 195.82 11.69 18.09 21.17 33.23 21.17 33.48 0 0.37 -26.22 0.62 -58.34 0.62 -45.17 0 -58.58 -0.37 -59.57 -1.48z"/>
    <path d="M726.77 505.60 c-29.17 -48 -70.77 -116.92 -96.49 -160.12 -9.60 -16.25 -18.34 -30.77 -19.45 -32.37 l-1.85 -2.95 50.46 0 50.46 0 9.72 16.98 c13.29 22.77 35.82 61.17 61.29 104.25 11.69 19.69 23.51 39.75 26.46 44.68 l5.17 8.86 50.71 0 50.58 0 3.82 6.52 c2.09 3.45 10.58 17.35 18.71 30.77 8.25 13.42 15.02 24.62 15.02 24.98 0 0.25 -44.80 0.49 -99.45 0.49 l-99.45 0 -25.72 -42.09z"/>
    <path d="M965.42 536.86 c-3.45 -5.91 -15.88 -26.22 -27.57 -45.17 -23.75 -38.40 -56.98 -92.43 -67.57 -109.78 l-6.89 -11.32 -48.25 -0.12 -48.12 0 -8.37 -14.40 c-4.55 -8 -12.31 -21.42 -17.23 -29.91 l-8.98 -15.38 162.71 -0.62 c89.48 -0.37 162.95 -0.49 163.20 -0.25 0.37 0.12 -0.74 1.23 -2.46 2.34 -6.40 4.31 -17.97 17.35 -21.17 23.75 -3.82 7.88 -5.78 17.11 -5.78 27.20 l0 7.26 -30.77 0 c-17.23 0 -30.77 0.49 -30.77 1.11 0 1.11 24.74 41.23 48.49 78.89 6.65 10.46 20.18 32.12 29.91 48 9.85 15.88 20.55 33.23 23.88 38.40 3.32 5.17 6.03 9.72 6.03 10.09 0 0.49 -23.38 0.74 -51.94 0.74 l-52.06 0 -6.28 -10.83z"/>
  </g>
  <g fill="#fec71e">
    <path d="M593.48 546.22 c-0.62 -0.86 -4.18 -6.52 -8 -12.68 -3.69 -6.03 -11.82 -19.32 -18.09 -29.54 -13.54 -21.91 -25.11 -40.74 -60.31 -98.46 -14.40 -23.63 -33.35 -54.65 -41.97 -68.80 -8.74 -14.15 -15.63 -25.97 -15.38 -26.22 0.62 -0.62 139.94 -0.62 140.43 -0.12 0.12 0.25 6.77 11.45 14.77 24.98 8 13.54 30.89 51.82 50.83 84.92 19.94 33.23 45.17 74.95 56 92.92 10.71 17.97 19.82 32.98 20.18 33.60 0.25 0.49 -30.52 0.86 -68.31 0.86 -53.66 0 -69.17 -0.37 -70.15 -1.48z"/>
  </g>
  <g fill="#ec0e20">
    <path d="M444.06 545.60 c-6.03 -6.89 -149.42 -233.97 -148.31 -234.95 0.25 -0.25 30.03 -0.49 66.22 -0.49 l65.72 -0.25 5.42 9.11 c3.08 4.92 13.78 22.52 24 39.14 16.86 27.57 27.94 45.66 86.52 140.92 10.83 17.60 21.66 35.20 24.12 39.02 2.58 3.82 4.55 7.63 4.55 8.37 0 0.86 -19.94 1.23 -63.14 1.23 -58.71 0 -63.38 -0.12 -65.11 -2.09z"/>
  </g>
</svg>
